<svg version="1.2" xmlns="http://www.w3.org/2000/svg" viewBox="0 0 400 400" width="400" height="400"><style>.s0{fill:#e06952}.s1{fill:#ad361f}.s2{fill:none;stroke:#ad361f;stroke-miterlimit:10;stroke-width:2.9}.s3{fill:#d94426}</style><g><path class="s0" d="m255.2 51.9l13.6 12.2 45.6-9.4-2.4-11.5-1.1-5.7-2.4-11.5-45.6 9.4z"/><path class="s0" d="m249 60c6.1-0.5 11.1-3.1 12.4-6.2l-1.9-0.2c-1.1 2.6-5.3 4.9-10.6 5.4-6.3 0.5-11.6-1.7-11.9-4.9-0.3-3.3 4.6-6.3 10.8-6.9 5.4-0.5 10 1.1 11.4 3.6v-0.3l2.2 0.4c-1.2-3.2-7-5.3-13.6-4.7-7.4 0.6-13.1 4.2-12.8 8.1 0.3 3.8 6.6 6.4 14 5.7z"/><path class="s1" d="m327 78.2c-1.7 7.9-2.6 11.9-4.4 19.8-4.8-0.9-3.3 29-8 28-78.5 2.3-154.6-3.1-233-5.5 2.9-13.6 6.4-34.9 8.5-40.5q118.5 2.5 236.9-1.8zm-166 9.9c0-2.3-1.9-4.2-4.2-4.2-2.4 0-4.3 1.9-4.3 4.2 0 2.4 1.9 4.3 4.3 4.3 2.3 0 4.2-1.9 4.2-4.3zm86.8 0c0-2.3-1.9-4.2-4.3-4.2-2.4 0-4.3 1.9-4.3 4.2 0 2.4 1.9 4.3 4.3 4.3 2.4 0 4.3-1.9 4.3-4.3z"/><path class="s2" d="m157.1 92.5q0-0.9 0-1.8c0.2-29.3 14.5-69.5 42.6-69.5 28 0.1 42.2 40.3 42.4 69.6 0 0.6 0 0.6 0 1.2 0.3 0 0.5 0 0.8 0 0-0.6 0-0.6 0-1.2-0.2-29.8-14.6-70.9-43.2-71-28.7 0-43.2 41-43.5 70.8q0 1 0 1.9c0.4 0 0.5 0 0.9 0z"/><path class="s0" d="m347.8 377.2q-158.4 5.1-316.8-1.3 21-140.4 40.1-281.1 120 3.9 240 0.8c11.6 94 23.9 187.8 36.7 281.6zm-201.5-272c0-2.9-2.3-5.2-5.2-5.2-2.9 0-5.2 2.3-5.2 5.2 0 2.9 2.3 5.2 5.2 5.2 2.9 0 5.2-2.3 5.2-5.2zm99.3 0c0-2.9-2.4-5.2-5.3-5.2-2.8 0-5.2 2.3-5.2 5.2 0 2.9 2.4 5.2 5.2 5.2 2.9 0 5.3-2.3 5.3-5.2z"/><path class="s0" d="m238 109.9q1 0.4 2.2 0.5 0.9-0.1 1.6-0.3 0-0.1 0-0.2v-0.6c-0.1-18.6-4.8-38.8-12.6-54-9.6-18.9-22.9-28.9-38.4-29h-0.2c-15.5 0-28.8 9.9-38.5 28.7-7.8 15.1-12.6 35.3-12.9 53.8q0 0.6 0 1.3 0.9 0.2 1.8 0.3 1.1 0 2.1-0.4 0-0.6 0-1.1c0.4-31.5 15.8-78.1 47.5-78.1h0.2c31.8 0.2 47 46.9 47.2 78.5q0 0.3 0 0.6z"/><path class="s3" d="m310.8 95.4c4.3 0.5 6.5 0.8 10.8 1.3 2.2-7.4 3.3-11.1 5.5-18.5 13.1 90.9 27 181.7 41.4 272.4-6.9 8.8-13.7 17.7-20.7 26.5-13-93.8-25.3-187.7-37-281.7z"/></g></svg>
