<svg version="1.2" xmlns="http://www.w3.org/2000/svg" viewBox="0 0 650 744" width="650" height="744">
	<title>18376314_ujsw_v869_210601</title>
	<style>
		.s0 { fill: #f56649 } 
		.s1 { fill: #cc553d } 
		.s2 { opacity: .4;mix-blend-mode: multiply;fill: #99402e } 
		.s3 { opacity: .2;mix-blend-mode: multiply;fill: #99402e } 
		.s4 { fill: #733022 } 
		.s5 { mix-blend-mode: screen;fill: #f56649 } 
	</style>
	<g id="Layer 1">
		<g id="&lt;Group&gt;">
			<g id="&lt;Group&gt;">
				<g id="&lt;Group&gt;">
					<path id="&lt;Path&gt;" class="s0" d="m192 353.6c-5.9 0-11-4.5-11.6-10.5-1.1-12.3-26.2-300.1 108.4-328 38.2-8 72-0.4 100.6 22.6 94.4 75.7 98.3 294.9 98.5 304.1 0 6.5-5.1 11.7-11.5 11.8q-0.1 0-0.2 0c-6.3 0-11.5-5.1-11.6-11.5 0-2.1-3.9-217.4-89.8-286.3-23.2-18.6-49.8-24.5-81.3-18-58.3 12.2-79.8 92.4-87.6 157.6-8.8 73.6-2.4 144.8-2.3 145.5 0.6 6.4-4.1 12.1-10.5 12.7q-0.6 0-1.1 0z"/>
					<path id="&lt;Compound Path&gt;" fill-rule="evenodd" class="s1" d="m192 354.6c-6.5 0-11.9-4.9-12.5-11.4-1.2-12.3-26.3-300.9 109.1-329.1 9.8-2 19.4-3.1 28.6-3.1 26.9 0 51.4 8.7 72.8 25.9 94.8 76.1 98.7 295.6 98.8 304.9 0.1 7-5.5 12.7-12.4 12.8-7 0-12.7-5.6-12.8-12.4 0-2.2-4-217.1-89.4-285.6-17-13.7-35.6-20.4-56.9-20.4-7.5 0-15.4 0.9-23.6 2.6-57.7 12-79.1 91.9-86.8 156.7-8.8 73.7-2.4 144.6-2.3 145.3 0.6 7-4.5 13.1-11.4 13.7q-0.6 0.1-1.2 0.1zm125.2-341.6c-9.1 0-18.6 1-28.2 3-133.7 27.8-108.7 314.8-107.6 327 0.5 5.8 5.6 10.2 11.6 9.6 5.9-0.5 10.2-5.7 9.6-11.6 0-0.7-6.5-71.8 2.4-145.7 7.8-65.5 29.5-146.2 88.3-158.4 8.3-1.7 16.4-2.6 24-2.6 21.7 0 40.7 6.8 58.2 20.8 86 69 90 284.9 90.1 287 0 5.8 4.8 10.6 10.6 10.6 6-0.1 10.8-5 10.7-10.8-0.1-9.3-4-228-98.1-303.5-21-16.9-45.1-25.4-71.6-25.4z"/>
				</g>
				<path id="&lt;Path&gt;" class="s2" d="m396.6 65.4c-9.8-16-21.9-32.7-36.9-45.3-21.5-8.7-45.2-10.4-70.9-5-58.2 12-86.5 72.7-99.9 138.7 3.6-9.1 7.7-18 12.4-26.4 10.7-18.8 24.4-38.6 41.8-52.8 12.7-18.7 29.1-32.3 50.4-36.8 31.5-6.5 58.1-0.6 81.3 18 22.3 17.9 39.1 45.6 51.7 76.9-6.7-23.7-17.2-46.6-29.9-67.3z"/>
				<path id="&lt;Path&gt;" class="s2" d="m458.6 267.2c5.4 42.6 6 74.1 6 74.9 0.1 6.4 5.3 11.5 11.6 11.5h0.2c6.4-0.1 11.5-5.3 11.5-11.8-0.1-3.3-0.6-33.6-5.6-74.6z"/>
				<path id="&lt;Path&gt;" class="s2" d="m201.4 267.2h-23.4c-0.6 41.3 2.1 72 2.4 75.9 0.6 6 5.7 10.5 11.6 10.5q0.5 0 1.1 0c6.4-0.6 11.1-6.3 10.5-12.7 0-0.5-2.8-31.5-2.2-73.7z"/>
			</g>
			<g id="&lt;Group&gt;">
				<g id="&lt;Group&gt;">
					<path id="&lt;Path&gt;" class="s0" d="m639.8 710.6h-518.2v-434.8l482.6 3.8z"/>
					<path id="&lt;Compound Path&gt;" fill-rule="evenodd" class="s1" d="m639.8 711.6q0 0 0 0h-518.2c-0.6 0-1-0.4-1-1v-434.8q0-0.4 0.3-0.7 0.3-0.2 0.7-0.3 0 0 0 0l482.6 3.8c0.5 0 1 0.4 1 0.9l35.5 430.8q0.1 0.2 0.1 0.3c0 0.6-0.5 1-1 1zm-517.3-1.9h516.2l-35.4-429.2-480.8-3.7z"/>
				</g>
				<path id="&lt;Path&gt;" class="s2" d="m639.8 710.6h-518.2v-434.8l482.6 3.8z"/>
				<g id="&lt;Group&gt;">
					<path id="&lt;Path&gt;" class="s0" d="m604.2 279.6l-42.7 4.5-32.6 12.9v434.9l50.7-21.3h60.2z"/>
					<path id="&lt;Compound Path&gt;" fill-rule="evenodd" class="s1" d="m528.9 732.8q-0.3 0-0.5-0.1c-0.3-0.2-0.5-0.5-0.5-0.8v-434.9c0-0.3 0.3-0.7 0.7-0.9l32.6-12.9q0.1-0.1 0.2-0.1l42.7-4.5q0.4 0 0.8 0.2 0.3 0.3 0.3 0.7l35.5 431.1c0.1 0.2 0 0.5-0.2 0.7-0.2 0.2-0.5 0.3-0.7 0.3h-60l-50.5 21.2q-0.2 0-0.4 0zm1-435.1v432.7l49.3-20.7q0.2 0 0.4 0h59.1l-35.3-429.1-41.7 4.5z"/>
				</g>
				<path id="&lt;Path&gt;" class="s1" d="m528.9 732.8q-0.3 0-0.6-0.2c-0.4-0.3-0.5-0.9-0.1-1.4l46.3-54.6c0.3-0.3 0.8-0.4 1.2-0.2l59.8 33.4c0.5 0.3 0.7 0.8 0.4 1.3-0.2 0.5-0.8 0.6-1.3 0.4l-59.2-33-45.7 54c-0.2 0.2-0.5 0.3-0.8 0.3z"/>
				<path id="&lt;Path&gt;" class="s1" d="m575.2 678.2c-0.5 0-0.9-0.4-1-0.9l-13.7-393.2c0-0.5 0.4-1 1-1 0.5 0 1 0.4 1 1l13.7 393.1c0 0.5-0.4 1-0.9 1q-0.1 0-0.1 0z"/>
				<g id="&lt;Group&gt;">
					<path id="&lt;Path&gt;" class="s0" d="m121.6 275.8l-7.8 418.2-103.1 37.9v-434.9l102.2-8.8z"/>
					<path id="&lt;Compound Path&gt;" fill-rule="evenodd" class="s1" d="m10.7 732.8q-0.3 0-0.5-0.1c-0.3-0.2-0.4-0.5-0.4-0.8v-434.9c0-0.5 0.3-0.9 0.8-0.9l101.8-8.8 8.4-12c0.2-0.4 0.7-0.5 1.1-0.4 0.4 0.1 0.7 0.5 0.6 0.9l-7.7 418.2c0 0.4-0.3 0.7-0.7 0.9l-103 37.9q-0.2 0-0.4 0zm1-434.9v432.6l101.2-37.2 7.6-414.3-6.8 9.8c-0.1 0.2-0.4 0.3-0.7 0.4z"/>
				</g>
				<path id="&lt;Path&gt;" class="s2" d="m121.6 275.8l-7.8 418.2-47.6 17.5 46.7-423.3z"/>
				<g id="&lt;Group&gt;">
					<path id="&lt;Path&gt;" class="s0" d="m528.9 731.9h-518.2v-434.9h518.2z"/>
					<path id="&lt;Compound Path&gt;" fill-rule="evenodd" class="s1" d="m528.9 732.8h-518.2c-0.5 0-0.9-0.4-0.9-0.9v-434.9c0-0.5 0.4-0.9 0.9-0.9h518.2c0.6 0 1 0.4 1 0.9v434.9c0 0.5-0.4 0.9-1 0.9zm-517.2-1.9h516.2v-432.9h-516.2z"/>
				</g>
				<path id="&lt;Path&gt;" class="s2" d="m604.2 279.6l-42.7 4.5 13.7 393.1-46.3 54.7 50.7-21.3h60.2z"/>
				<path id="&lt;Path&gt;" class="s2" d="m528.9 299.2v432.7l50.7-21.7 55.5-0.2-59.9-32.8-34.4 23.6z"/>
				<path id="&lt;Compound Path&gt;" fill-rule="evenodd" class="s3" d="m528.9 297v434.9h-518.2v-434.9zm-8.1 8l-320.5 7.8h-172.3c0 0-53.1 416 236 397.8 299.2-18.7 256.8-405.6 256.8-405.6z"/>
				<path id="&lt;Path&gt;" class="s3" d="m523.5 576.5c-7.8 26.7-17.2 53.4-31.3 77.5-12 20.7-28.3 37.3-49.7 48.3-20.3 10.3-42.6 15.7-65 19.1-23.5 3.4-47.3 5.6-70.9 7.3-26.4 1.9-52.9 2.7-79.3 1.5-51.2-2.4-104-11.4-149.4-36.4-17.7-9.8-33.1-23.5-43.5-41.1-9.9-16.7-15.5-35.6-18.6-54.7-3.4-20.9-4.3-42-5.1-63.1v197h518.2v-176.5q-2.4 10.6-5.4 21.1z"/>
			</g>
			<g id="&lt;Group&gt;">
				<g id="&lt;Group&gt;">
					<g id="&lt;Group&gt;">
						<path id="&lt;Path&gt;" class="s0" d="m127.7 369q-0.4 0-0.8 0c-6.4-0.5-11.3-6-10.8-12.4 0.9-12.8 24.2-311.6 157.2-339.3 37.4-7.7 68.9-0.1 93.7 22.6 84.5 77.7 57.7 309.1 56.5 318.9-0.8 6.4-6.6 10.9-13 10.2-6.3-0.8-10.9-6.6-10.1-13 0-0.6 6.9-58.7 3.9-124.9-3.9-85.6-22.3-145.8-53.1-174.1-19.2-17.6-43.1-23.1-73.2-16.9-59.2 12.4-93.8 97-112.3 165.8-20.7 76.9-26.3 151.6-26.4 152.3-0.4 6.2-5.5 10.8-11.6 10.8z"/>
						<path id="&lt;Compound Path&gt;" fill-rule="evenodd" class="s1" d="m127.7 370q-0.4 0-0.9 0c-3.4-0.3-6.4-1.8-8.6-4.4-2.2-2.5-3.3-5.8-3.1-9.1 1-12.8 24.3-312.3 158-340.1 9.5-2 18.7-3 27.5-3 25.9 0 48.4 8.7 67 25.8 85 78 58 309.9 56.8 319.7-0.8 6.8-7 11.9-14 11-6.9-0.8-11.8-7.1-11-14 0.1-0.6 7-58.3 3.9-124.8-3.9-85.3-22.1-145.2-52.7-173.3-14.1-12.9-30.4-19.2-50-19.2-7 0-14.5 0.8-22.4 2.5-58.8 12.2-93.1 96.5-111.6 165.1-20.5 76.4-26.3 151.4-26.3 152.1-0.5 6.6-6 11.7-12.6 11.7zm172.9-354.6c-8.6 0-17.8 0.9-27.1 2.9-132.3 27.5-155.5 325.6-156.4 338.3-0.2 2.9 0.7 5.6 2.5 7.8 1.9 2.1 4.5 3.4 7.3 3.6 5.9 0.5 11-4 11.5-9.8 0-0.8 5.7-75.9 26.4-152.5 18.6-69.1 53.3-154.1 113-166.5 8-1.7 15.7-2.5 22.8-2.5 20.1 0 36.9 6.4 51.3 19.6 31 28.5 49.5 88.9 53.4 174.7 3 66.6-3.9 124.5-4 125.1-0.7 5.9 3.5 11.2 9.4 11.9 5.9 0.7 11.1-3.5 11.8-9.3 1.2-9.8 28-240.7-56.2-318.1-18.2-16.7-40.3-25.2-65.7-25.2z"/>
					</g>
					<g id="&lt;Group&gt;">
						<g id="&lt;Group&gt;">
							<path id="&lt;Path&gt;" class="s4" d="m136 355.2c0 4.5-3.6 8.2-8.2 8.2-4.5 0-8.1-3.7-8.1-8.2 0-4.5 3.6-8.1 8.1-8.1 4.6 0 8.2 3.6 8.2 8.1z"/>
							<path id="&lt;Compound Path&gt;" fill-rule="evenodd" class="s1" d="m127.8 364.4c-5 0-9.1-4.1-9.1-9.2 0-5 4.1-9.1 9.1-9.1 5.1 0 9.2 4.1 9.2 9.1 0 5.1-4.1 9.2-9.2 9.2zm0-16.4c-3.9 0-7.2 3.3-7.2 7.2 0 4 3.3 7.2 7.2 7.2 4 0 7.2-3.2 7.2-7.2 0-3.9-3.2-7.2-7.2-7.2z"/>
						</g>
						<path id="&lt;Path&gt;" class="s5" d="m128.9 352.7c0 2-1.6 3.5-3.5 3.5-1.9 0-3.5-1.5-3.5-3.5 0-1.9 1.6-3.5 3.5-3.5 1.9 0 3.5 1.6 3.5 3.5z"/>
					</g>
					<g id="&lt;Group&gt;">
						<g id="&lt;Group&gt;">
							<path id="&lt;Path&gt;" class="s4" d="m420.7 355.2c0 4.5-3.7 8.2-8.2 8.2-4.5 0-8.1-3.7-8.1-8.2 0-4.5 3.6-8.1 8.1-8.1 4.5 0 8.2 3.6 8.2 8.1z"/>
							<path id="&lt;Compound Path&gt;" fill-rule="evenodd" class="s1" d="m412.5 364.4c-5 0-9.1-4.1-9.1-9.2 0-5 4.1-9.1 9.1-9.1 5.1 0 9.2 4.1 9.2 9.1 0 5.1-4.1 9.2-9.2 9.2zm0-16.4c-3.9 0-7.2 3.3-7.2 7.2 0 4 3.3 7.2 7.2 7.2 4 0 7.2-3.2 7.2-7.2 0-3.9-3.2-7.2-7.2-7.2z"/>
						</g>
						<path id="&lt;Path&gt;" class="s5" d="m413.6 352.7c0 2-1.6 3.5-3.5 3.5-1.9 0-3.5-1.5-3.5-3.5 0-1.9 1.6-3.5 3.5-3.5 1.9 0 3.5 1.6 3.5 3.5z"/>
					</g>
				</g>
				<g id="&lt;Group&gt;">
					<path id="&lt;Path&gt;" class="s2" d="m195.1 102.7c-42.6 82.5-56.7 219.3-59.1 230.9-2.4 11.6-8.2 6.3-8.2 6.3-4.4 0.2-7.9 2.6-10.7 5.8-0.6 5.8-0.9 9.6-1 10.9-0.5 6.4 4.4 11.9 10.8 12.4q0.4 0 0.8 0c6.1 0 11.2-4.6 11.6-10.8 0.1-0.7 5.7-75.4 26.4-152.3 18.5-68.8 53.1-153.4 112.3-165.8 28-5.8 50.7-1.4 69.1 13.4q0 0-0.1-0.1c-34.4-28.9-109.2-33.1-151.9 49.3z"/>
					<path id="&lt;Path&gt;" class="s2" d="m367 39.9c-6.7-6.1-13.9-11.1-21.6-15.1 4.1 2.6 41.6 28.5 61.2 110.9 20.7 87.2 10.4 183.2 10.4 183.2l-2 23c0 0-8.8-2.2-13.8 6.4-0.5 4.8-0.8 7.6-0.8 7.7-0.8 6.4 3.8 12.2 10.1 13 6.4 0.7 12.2-3.8 13-10.2 1.2-9.8 28-241.2-56.5-318.9z"/>
				</g>
			</g>
		</g>
	</g>
</svg>