<svg xmlns="http://www.w3.org/2000/svg" class="ionicon" viewBox="0 0 512 512">
    <defs>
        <g id="add">
            <path fill="none" stroke="currentColor" stroke-linecap="round" stroke-linejoin="round" stroke-width="32" d="M256 112v288M400 256H112" />
        </g>
        <g id="airplane">
            <path fill="none" stroke="currentColor" stroke-linecap="round" stroke-linejoin="round" stroke-width="32" d="M407.72 224c-3.4 0-14.79.1-18 .3l-64.9 1.7a1.83 1.83 0 01-1.69-.9L193.55 67.56a9 9 0 00-6.66-3.56H160l73 161a2.35 2.35 0 01-2.26 3.35l-121.69 1.8a8.06 8.06 0 01-6.6-3.1l-37-45c-3-3.9-8.62-6-13.51-6H33.08c-1.29 0-1.1 1.21-.75 2.43l19.84 71.42a16.3 16.3 0 010 11.9L32.31 333c-.59 1.95-.52 3 1.77 3H52c8.14 0 9.25-1.06 13.41-6.3l37.7-45.7a8.19 8.19 0 016.6-3.1l120.68 2.7a2.7 2.7 0 012.43 3.74L160 448h26.64a9 9 0 006.65-3.55L323.14 287c.39-.6 2-.9 2.69-.9l63.9 1.7c3.3.2 14.59.3 18 .3C452 288.1 480 275.93 480 256s-27.88-32-72.28-32z" />
        </g>
        <g id="alert-circle">
            <path fill="none" stroke="currentColor" stroke-miterlimit="10" stroke-width="32" d="M448 256c0-106-86-192-192-192S64 150 64 256s86 192 192 192 192-86 192-192z" />
            <path fill="none" stroke="currentColor" stroke-linecap="round" stroke-linejoin="round" stroke-width="32" d="M250.26 166.05L256 288l5.73-121.95a5.74 5.74 0 00-5.79-6h0a5.74 5.74 0 00-5.68 6z" />
            <path fill="currentColor" d="M256 367.91a20 20 0 1120-20 20 20 0 01-20 20z" />
        </g>
        <g id="bag-add">
            <path fill="none" stroke="currentColor" stroke-linecap="round" stroke-linejoin="round" stroke-width="32" d="M256 256v128M320 320H192M80 176a16 16 0 00-16 16v216c0 30.24 25.76 56 56 56h272c30.24 0 56-24.51 56-54.75V192a16 16 0 00-16-16zM160 176v-32a96 96 0 0196-96h0a96 96 0 0196 96v32" />
        </g>
        <g id="bag">
            <path fill="none" stroke="currentColor" stroke-linecap="round" stroke-linejoin="round" stroke-width="32" d="M80 176a16 16 0 00-16 16v216c0 30.24 25.76 56 56 56h272c30.24 0 56-24.51 56-54.75V192a16 16 0 00-16-16zM160 176v-32a96 96 0 0196-96h0a96 96 0 0196 96v32" />
        </g>
        <g id="chevron-back">
            <path fill="none" stroke="currentColor" stroke-linecap="round" stroke-linejoin="round" stroke-width="32" d="M328 112L184 256l144 144" />
        </g>
        <g id="chevron-forward">
            <path fill="none" stroke="currentColor" stroke-linecap="round" stroke-linejoin="round" stroke-width="32" d="M184 112l144 144-144 144" />
        </g>
        <g id="close">
            <path fill="none" stroke="currentColor" stroke-linecap="round" stroke-linejoin="round" stroke-width="32" d="M368 368L144 144M368 144L144 368" />
        </g>
        <g id="eye-off">
            <path fill="currentColor" d="M432 448a15.92 15.92 0 01-11.31-4.69l-352-352a16 16 0 0122.62-22.62l352 352A16 16 0 01432 448zM255.66 384c-41.49 0-81.5-12.28-118.92-36.5-34.07-22-64.74-53.51-88.7-91v-.08c19.94-28.57 41.78-52.73 65.24-72.21a2 2 0 00.14-2.94L93.5 161.38a2 2 0 00-2.71-.12c-24.92 21-48.05 46.76-69.08 76.92a31.92 31.92 0 00-.64 35.54c26.41 41.33 60.4 76.14 98.28 100.65C162 402 207.9 416 255.66 416a239.13 239.13 0 0075.8-12.58 2 2 0 00.77-3.31l-21.58-21.58a4 4 0 00-3.83-1 204.8 204.8 0 01-51.16 6.47zM490.84 238.6c-26.46-40.92-60.79-75.68-99.27-100.53C349 110.55 302 96 255.66 96a227.34 227.34 0 00-74.89 12.83 2 2 0 00-.75 3.31l21.55 21.55a4 4 0 003.88 1 192.82 192.82 0 0150.21-6.69c40.69 0 80.58 12.43 118.55 37 34.71 22.4 65.74 53.88 89.76 91a.13.13 0 010 .16 310.72 310.72 0 01-64.12 72.73 2 2 0 00-.15 2.95l19.9 19.89a2 2 0 002.7.13 343.49 343.49 0 0068.64-78.48 32.2 32.2 0 00-.1-34.78z" />
            <path fill="currentColor" d="M256 160a95.88 95.88 0 00-21.37 2.4 2 2 0 00-1 3.38l112.59 112.56a2 2 0 003.38-1A96 96 0 00256 160zM165.78 233.66a2 2 0 00-3.38 1 96 96 0 00115 115 2 2 0 001-3.38z" />
        </g>
        <g id="eye">
            <path fill="none" stroke="currentColor" stroke-linecap="round" stroke-linejoin="round" stroke-width="32" d="M255.66 112c-77.94 0-157.89 45.11-220.83 135.33a16 16 0 00-.27 17.77C82.92 340.8 161.8 400 255.66 400c92.84 0 173.34-59.38 221.79-135.25a16.14 16.14 0 000-17.47C428.89 172.28 347.8 112 255.66 112z" />
            <circle fill="none" stroke="currentColor" stroke-miterlimit="10" stroke-width="32" cx="256" cy="256" r="80" />
        </g>
        <g id="logo-facebook">
            <path fill="currentColor" fill-rule="evenodd" d="M480 257.35c0-123.7-100.3-224-224-224s-224 100.3-224 224c0 111.8 81.9 204.47 189 221.29V322.12h-56.89v-64.77H221V208c0-56.13 33.45-87.16 84.61-87.16 24.51 0 50.15 4.38 50.15 4.38v55.13H327.5c-27.81 0-36.51 17.26-36.51 35v42h62.12l-9.92 64.77H291v156.54c107.1-16.81 189-109.48 189-221.31z" />
        </g>
        <g id="logo-instagram">
            <path fill="currentColor" d="M349.33 69.33a93.62 93.62 0 0193.34 93.34v186.66a93.62 93.62 0 01-93.34 93.34H162.67a93.62 93.62 0 01-93.34-93.34V162.67a93.62 93.62 0 0193.34-93.34h186.66m0-37.33H162.67C90.8 32 32 90.8 32 162.67v186.66C32 421.2 90.8 480 162.67 480h186.66C421.2 480 480 421.2 480 349.33V162.67C480 90.8 421.2 32 349.33 32z" />
            <path fill="currentColor" d="M377.33 162.67a28 28 0 1128-28 27.94 27.94 0 01-28 28zM256 181.33A74.67 74.67 0 11181.33 256 74.75 74.75 0 01256 181.33m0-37.33a112 112 0 10112 112 112 112 0 00-112-112z" />
        </g>
        <g id="logo-pinterest">
            <path fill="currentColor" d="M256.05 32c-123.7 0-224 100.3-224 224 0 91.7 55.2 170.5 134.1 205.2-.6-15.6-.1-34.4 3.9-51.4 4.3-18.2 28.8-122.1 28.8-122.1s-7.2-14.3-7.2-35.4c0-33.2 19.2-58 43.2-58 20.4 0 30.2 15.3 30.2 33.6 0 20.5-13.1 51.1-19.8 79.5-5.6 23.8 11.9 43.1 35.4 43.1 42.4 0 71-54.5 71-119.1 0-49.1-33.1-85.8-93.2-85.8-67.9 0-110.3 50.7-110.3 107.3 0 19.5 5.8 33.3 14.8 43.9 4.1 4.9 4.7 6.9 3.2 12.5-1.1 4.1-3.5 14-4.6 18-1.5 5.7-6.1 7.7-11.2 5.6-31.3-12.8-45.9-47-45.9-85.6 0-63.6 53.7-139.9 160.1-139.9 85.5 0 141.8 61.9 141.8 128.3 0 87.9-48.9 153.5-120.9 153.5-24.2 0-46.9-13.1-54.7-27.9 0 0-13 51.6-15.8 61.6-4.7 17.3-14 34.5-22.5 48a225.13 225.13 0 0063.5 9.2c123.7 0 224-100.3 224-224S379.75 32 256.05 32z" />
        </g>
        <g id="logo-twitter">
            <path fill="currentColor" d="M496 109.5a201.8 201.8 0 01-56.55 15.3 97.51 97.51 0 0043.33-53.6 197.74 197.74 0 01-62.56 23.5A99.14 99.14 0 00348.31 64c-54.42 0-98.46 43.4-98.46 96.9a93.21 93.21 0 002.54 22.1 280.7 280.7 0 01-203-101.3A95.69 95.69 0 0036 130.4c0 33.6 17.53 63.3 44 80.7A97.5 97.5 0 0135.22 199v1.2c0 47 34 86.1 79 95a100.76 100.76 0 01-25.94 3.4 94.38 94.38 0 01-18.51-1.8c12.51 38.5 48.92 66.5 92.05 67.3A199.59 199.59 0 0139.5 405.6a203 203 0 01-23.5-1.4A278.68 278.68 0 00166.74 448c181.36 0 280.44-147.7 280.44-275.8 0-4.2-.11-8.4-.31-12.5A198.48 198.48 0 00496 109.5z" />
        </g>
        <g id="options">
            <path fill="none" stroke="currentColor" stroke-linecap="round" stroke-linejoin="round" stroke-width="32" d="M368 128h80M64 128h240M368 384h80M64 384h240M208 256h240M64 256h80" />
            <circle fill="none" stroke="currentColor" stroke-linecap="round" stroke-linejoin="round" stroke-width="32" cx="336" cy="128" r="32" />
            <circle fill="none" stroke="currentColor" stroke-linecap="round" stroke-linejoin="round" stroke-width="32" cx="176" cy="256" r="32" />
            <circle fill="none" stroke="currentColor" stroke-linecap="round" stroke-linejoin="round" stroke-width="32" cx="336" cy="384" r="32" />
        </g>
        <g id="person">
            <path fill="none" stroke="currentColor" stroke-linecap="round" stroke-linejoin="round" stroke-width="32" d="M344 144c-3.92 52.87-44 96-88 96s-84.15-43.12-88-96c-4-55 35-96 88-96s92 42 88 96z" />
            <path fill="none" stroke="currentColor" stroke-miterlimit="10" stroke-width="32" d="M256 304c-87 0-175.3 48-191.64 138.6C62.39 453.52 68.57 464 80 464h352c11.44 0 17.62-10.48 15.65-21.4C431.3 352 343 304 256 304z" />
        </g>
        <g id="remove">
            <path fill="none" stroke="currentColor" stroke-linecap="round" stroke-linejoin="round" stroke-width="32" d="M400 256H112" />
        </g>
        <g id="reorder-three">
            <path fill="none" stroke="currentColor" stroke-linecap="round" stroke-linejoin="round" stroke-width="32" d="M96 256h320M96 176h320M96 336h320" />
        </g>
        <g id="time">
            <path fill="none" stroke="currentColor" stroke-miterlimit="10" stroke-width="32" d="M256 64C150 64 64 150 64 256s86 192 192 192 192-86 192-192S362 64 256 64z" />
            <path fill="none" stroke="currentColor" stroke-linecap="round" stroke-linejoin="round" stroke-width="32" d="M256 128v144h96" />
        </g>
        <g id="trash">
            <path fill="none" stroke="currentColor" stroke-linecap="round" stroke-linejoin="round" stroke-width="32" d="M112 112l20 320c.95 18.49 14.4 32 32 32h184c17.67 0 30.87-13.51 32-32l20-320" />
            <path stroke="currentColor" stroke-linecap="round" stroke-miterlimit="10" stroke-width="32" d="M80 112h352" />
            <path fill="none" stroke="currentColor" stroke-linecap="round" stroke-linejoin="round" stroke-width="32" d="M192 112V72h0a23.93 23.93 0 0124-24h80a23.93 23.93 0 0124 24h0v40M256 176v224M184 176l8 224M328 176l-8 224" />
        </g>
        <g id="wallet">
            <rect fill="none" stroke="currentColor" stroke-linejoin="round" stroke-width="32" x="48" y="144" width="416" height="288" rx="48" ry="48" />
            <path fill="none" stroke="currentColor" stroke-linejoin="round" stroke-width="32" d="M411.36 144v-30A50 50 0 00352 64.9L88.64 109.85A50 50 0 0048 159v49" />
            <path d="M368 320a32 32 0 1132-32 32 32 0 01-32 32z" />
        </g>
    </defs>
</svg>
